<!DOCTYPE svg PUBLIC "-//W3C//DTD SVG 1.1//EN" "http://www.w3.org/Graphics/SVG/1.1/DTD/svg11.dtd">
<!-- Uploaded to: SVG Repo, www.svgrepo.com, Transformed by: SVG Repo Mixer Tools -->
<svg fill="#b30000" height="800px" width="800px" version="1.1" id="Layer_1" xmlns="http://www.w3.org/2000/svg" xmlns:xlink="http://www.w3.org/1999/xlink" viewBox="0 0 512 512" xml:space="preserve" stroke="#b30000">
<g id="SVGRepo_bgCarrier" stroke-width="0"/>
<g id="SVGRepo_tracerCarrier" stroke-linecap="round" stroke-linejoin="round"/>
<g id="SVGRepo_iconCarrier"> <g> <g> <path d="M426.67,102.656V68.011C426.67,30.442,396.218,0,358.659,0H153.326c-37.557,0-67.989,30.441-67.989,68.011v34.645 c0,36.227,28.298,65.815,63.994,67.884v42.793h-42.667c-11.782,0-21.333,9.551-21.333,21.333V320v170.667 c0,11.782,9.551,21.333,21.333,21.333c11.782,0,21.333-9.551,21.333-21.333V341.333h42.667V448 c0,11.782,9.551,21.333,21.333,21.333c11.782,0,21.333-9.551,21.333-21.333V341.333h85.333V448 c0,11.782,9.551,21.333,21.333,21.333S341.33,459.782,341.33,448V341.333h42.667v149.333c0,11.782,9.551,21.333,21.333,21.333 c11.782,0,21.333-9.551,21.333-21.333V320v-85.333c0-11.782-9.551-21.333-21.333-21.333h-42.667V170.54 C398.357,168.466,426.67,138.879,426.67,102.656z M128.003,102.656V68.011c0-14.008,11.332-25.344,25.323-25.344h205.333 c13.997,0,25.344,11.343,25.344,25.344v34.645c0,14.001-11.347,25.344-25.344,25.344H153.326 C139.335,128,128.003,116.664,128.003,102.656z M383.997,298.667h-256V256h256V298.667z M191.997,213.333v-42.667h128v42.667 H191.997z"/> </g> </g> </g>
</svg>